<svg xmlns="http://www.w3.org/2000/svg" fill="none" viewBox="0 0 64 64" id="Facebook--Streamline-Svg-Logos" height="64" width="64">
  <desc>
    Facebook Streamline Icon: https://streamlinehq.com
  </desc>
  <path fill="#1877f2" d="M63.33333333333333 32C63.33333333333333 14.695066666666666 49.30493333333334 0.6666666666666666 32 0.6666666666666666S0.6666666666666666 14.695066666666666 0.6666666666666666 32c0 15.639399999999998 11.458133333333333 28.602066666666666 26.437466666666666 30.952666666666666V41.05726666666666H19.148466666666664V32h7.955666666666667V25.096866666666664c0 -7.8529333333333335 4.677866666666667 -12.1906 11.835066666666666 -12.1906 3.4281333333333333 0 7.013933333333332 0.6119333333333333 7.013933333333332 0.6119333333333333v7.710999999999999h-3.9510666666666663c-3.8923999999999994 0 -5.106199999999999 2.4152666666666667 -5.106199999999999 4.8932V32h8.690066666666667l-1.3892 9.057266666666667H36.89586666666666V62.952666666666666C51.87519999999999 60.60206666666666 63.33333333333333 47.6394 63.33333333333333 32Z" stroke-width="0.6667"></path>
  <path fill="#ffffff" d="M44.196733333333334 41.05726666666666 45.58593333333333 32H36.89586666666666v-5.877599999999999c0 -2.477933333333333 1.2138 -4.8932 5.106199999999999 -4.8932h3.9510666666666663V13.5182s-3.5858 -0.6119333333333333 -7.013933333333332 -0.6119333333333333c-7.1572 0 -11.835066666666666 4.337666666666666 -11.835066666666666 12.1906V32H19.148466666666664v9.057266666666667h7.955666666666667V62.952666666666666C28.6994 63.203 30.334466666666664 63.33333333333333 32 63.33333333333333c1.6655333333333333 0 3.3005999999999998 -0.13033333333333333 4.895866666666667 -0.3806666666666666V41.05726666666666h7.300866666666666Z" stroke-width="0.6667"></path>
</svg>