<svg role="img" viewBox="0 0 64 64" xmlns="http://www.w3.org/2000/svg" id="Stripe--Streamline-Simple-Icons" height="64" width="64">
  <desc>
    Stripe Streamline Icon: https://streamlinehq.com
  </desc>
  <title>Stripe</title>
  <path d="M37.269333333333336 24.4c-5.792 -2.1493333333333333 -8.949333333333332 -3.802666666666666 -8.949333333333332 -6.4239999999999995 0 -2.2159999999999997 1.8213333333333335 -3.4799999999999995 5.069333333333333 -3.4799999999999995 5.938666666666666 0 12.04 2.288 16.24 4.349333333333333l2.373333333333333 -14.650666666666666C48.672 2.5999999999999996 41.858666666666664 0 32.44 0 25.778666666666666 0 20.237333333333332 1.744 16.27733333333333 4.992 12.159999999999998 8.392 10.018666666666666 13.312 10.018666666666666 19.247999999999998c0 10.770666666666665 6.578666666666667 15.36 17.269333333333332 19.250666666666667 6.893333333333333 2.453333333333333 9.186666666666666 4.197333333333333 9.186666666666666 6.888 0 2.6133333333333333 -2.2399999999999998 4.119999999999999 -6.277333333333333 4.119999999999999 -5 0 -13.239999999999998 -2.456 -18.64 -5.624l-2.4 14.813333333333333C13.799999999999999 61.30666666666666 22.36 64 31.237333333333332 64c7.042666666666666 0 12.914666666666665 -1.664 16.874666666666666 -4.834666666666666 4.437333333333333 -3.4799999999999995 6.7333333333333325 -8.629333333333333 6.7333333333333325 -15.285333333333334 0 -11.008 -6.730666666666666 -15.602666666666666 -17.584 -19.479999999999997h0.008z" fill="#635bff" stroke-width="2.6667"></path>
</svg>