<svg role="img" viewBox="0 0 64 64" xmlns="http://www.w3.org/2000/svg" id="Uphold--Streamline-Simple-Icons" height="64" width="64">
  <desc>
    Uphold Streamline Icon: https://streamlinehq.com
  </desc>
  <title>Uphold</title>
  <path d="M38.0648 59.55173333333333a20.939733333333333 20.9392 0 0 1 -5.921866666666666 0.8896h-0.2845333333333333a20.747733333333333 20.7472 0 0 1 -5.964533333333333 -0.904 1.7813333333333334 1.7813333333333334 0 1 0 -1.0106666666666666 3.4165333333333328A24.711999999999996 24.711466666666666 0 0 0 31.858399999999996 64h0.2845333333333333a24.41333333333333 24.412533333333332 0 0 0 6.932533333333333 -1.0392 1.7794666666666665 1.7794666666666665 0 1 0 -1.0106666666666666 -3.4090666666666665zm15.5376 -43.79306666666666v-0.10693333333333332a22.726399999999998 22.7256 0 0 0 -43.217600000000004 0.0712v0.042666666666666665c-2.0072 5.900266666666667 -1.2813333333333332 13.800533333333334 1.9573333333333331 21.159999999999997 4.4269333333333325 10.064 12.462666666666665 17.081599999999998 19.580266666666667 17.081599999999998h0.1992c7.117333333333333 0 15.153333333333332 -6.996266666666667 19.580266666666667 -17.081599999999998 3.1959999999999997 -7.345066666666666 3.9218666666666664 -15.259733333333333 1.9005333333333332 -21.1672zM43.16106666666667 7.1466666666666665c-3.6016 -0.13546666666666665 -7.516266666666667 1.4234666666666667 -11.160533333333333 4.469333333333333 -3.6866666666666665 -3.045866666666667 -7.601333333333333 -4.604799999999999 -11.202666666666666 -4.469333333333333a19.281333333333333 19.2808 0 0 1 22.3632 0zm-8.242133333333333 42.654133333333334a6.925333333333333 6.925333333333333 0 0 1 -5.879199999999999 0c-6.071199999999999 -2.7970666666666664 -7.295466666666666 -14.042666666666666 -2.6832 -24.53333333333333a31.943466666666666 31.942666666666668 0 0 1 5.643999999999999 -8.740266666666667 31.70133333333333 31.7008 0 0 1 5.630133333333333 8.740266666666667c4.583733333333333 10.490666666666666 3.3594666666666666 21.736266666666666 -2.7119999999999997 24.53333333333333zm-19.36 -14.284533333333332c-2.904 -6.590666666666666 -3.5586666666666664 -13.522666666666666 -1.8218666666666667 -18.640266666666665 0.9253333333333332 -2.6832 2.484 -4.5906666666666665 4.4981333333333335 -5.5232 3.1530666666666662 -1.4589333333333334 7.238666666666667 -0.4269333333333333 11.153333333333332 2.740266666666667a35.3528 35.352 0 0 0 -6.284799999999999 9.736533333333332c-3.1173333333333333 7.117333333333333 -3.808 14.369866666666667 -2.3701333333333334 20.014133333333334a33.758399999999995 33.7576 0 0 1 -5.1743999999999994 -8.327466666666666Zm32.84053333333333 0a33.93653333333333 33.93546666666666 0 0 1 -5.1743999999999994 8.334399999999999c1.4234666666666667 -5.6512 0.7117333333333333 -12.9392 -2.3701333333333334 -20.021066666666666a35.3528 35.352 0 0 0 -6.284799999999999 -9.736533333333332c3.9146666666666663 -3.1672 7.9928 -4.199199999999999 11.146133333333333 -2.740266666666667 2.021333333333333 0.9325333333333333 3.5586666666666664 2.8469333333333333 4.505333333333333 5.5232 1.7578666666666667 5.0818666666666665 1.0746666666666667 12.0496 -1.8506666666666665 18.640266666666665z" fill="#84fb7f" stroke-width="2.6667"></path>
</svg>